<?xml version="1.0" standalone="no"?>
<!DOCTYPE svg PUBLIC "-//W3C//DTD SVG 20010904//EN"
 "http://www.w3.org/TR/2001/REC-SVG-20010904/DTD/svg10.dtd">
<svg version="1.0" xmlns="http://www.w3.org/2000/svg"
 width="563.000000pt" height="190.000000pt" viewBox="0 0 563.000000 190.000000"
 preserveAspectRatio="xMidYMid meet">
<metadata>
Created by potrace 1.16, written by Peter Selinger 2001-2019
</metadata>
<g transform="translate(0.000000,190.000000) scale(0.100000,-0.100000)"
fill="#000000" stroke="none">
<path d="M5095 1290 c-112 -16 -215 -96 -267 -206 -28 -61 -30 -71 -26 -157 6
-125 47 -205 138 -271 99 -71 210 -87 320 -46 33 12 57 26 54 31 -5 8 9 13 28
10 4 0 12 9 18 22 11 21 10 21 -4 3 -9 -11 -16 -17 -16 -13 0 3 -28 -7 -62
-23 -126 -60 -270 -31 -366 74 -68 74 -87 124 -87 231 0 75 4 97 23 133 36 68
98 128 165 162 75 38 175 42 246 10 24 -11 52 -20 63 -20 12 0 17 -4 12 -12
-4 -7 -3 -8 5 -4 15 10 4 26 -18 26 -10 0 -24 6 -30 14 -11 13 -63 29 -121 39
-14 2 -48 1 -75 -3z"/>
<path d="M1340 1281 c-161 -52 -238 -202 -209 -406 24 -172 114 -264 277 -284
189 -24 329 39 389 176 27 60 24 292 -4 353 -29 65 -68 107 -127 138 -46 24
-63 27 -176 29 -69 1 -136 -1 -150 -6z m221 -106 c90 -32 129 -101 129 -228 0
-176 -64 -250 -215 -250 -127 0 -193 55 -214 179 -13 71 -2 164 25 216 42 80
171 119 275 83z"/>
<path d="M2159 1276 c-153 -41 -221 -143 -222 -331 -1 -191 70 -294 235 -345
78 -24 339 -6 322 22 -3 4 0 8 5 8 6 0 11 10 11 23 0 14 -3 18 -8 10 -5 -8
-13 -9 -22 -3 -12 8 -12 10 -1 10 8 0 11 6 7 16 -3 8 -2 12 4 9 13 -8 32 4 25
14 -2 5 -33 3 -67 -5 -131 -28 -242 -13 -306 42 -101 86 -110 282 -17 377 50
52 115 70 222 63 126 -8 143 -10 143 -18 0 -5 4 -8 8 -8 5 0 9 14 10 32 0 20
-2 27 -7 19 -6 -9 -10 -7 -14 9 -4 16 -2 20 9 16 11 -4 14 -1 12 10 -2 10 -22
22 -48 30 -56 17 -239 17 -301 0z"/>
<path d="M4200 940 l0 -352 128 4 c161 6 223 27 298 102 140 141 125 402 -30
520 -74 56 -120 69 -263 74 l-133 5 0 -353z m321 292 c64 -31 117 -85 148
-151 22 -48 26 -70 26 -146 0 -105 -21 -159 -87 -224 -68 -69 -115 -85 -255
-89 l-123 -4 0 322 0 322 123 -4 c102 -3 130 -7 168 -26z"/>
</g>
</svg>
